<?xml version="1.0" standalone="no"?>
<!DOCTYPE svg PUBLIC "-//W3C//DTD SVG 20010904//EN"
 "http://www.w3.org/TR/2001/REC-SVG-20010904/DTD/svg10.dtd">
<svg version="1.0" xmlns="http://www.w3.org/2000/svg"
 width="484.000000pt" height="484.000000pt" viewBox="0 0 484.000000 484.000000"
 preserveAspectRatio="xMidYMid meet">
<metadata>
Created by potrace 1.11, written by Peter Selinger 2001-2013
</metadata>
<g transform="translate(0.000000,484.000000) scale(0.100000,-0.100000)"
fill="#000000" stroke="none">
<path d="M2237 4214 c-1 -1 -43 -5 -92 -9 -50 -3 -108 -8 -130 -10 -22 -2 -69
-7 -105 -10 -36 -4 -85 -10 -110 -15 -25 -4 -52 -8 -60 -8 -35 -2 -89 -16
-166 -44 -133 -48 -270 -138 -392 -259 l-71 -70 -37 33 c-52 48 -194 148 -209
148 -7 0 -15 3 -17 8 -4 10 -156 79 -194 88 -16 4 -35 11 -42 17 -7 5 -15 7
-18 5 -3 -3 -25 0 -48 7 -24 7 -68 16 -97 20 -30 4 -70 9 -89 12 -47 7 -279 8
-286 1 -3 -3 7 -19 22 -34 34 -37 78 -124 100 -200 17 -58 20 -141 14 -364 -1
-47 0 -98 3 -115 3 -16 8 -55 12 -85 16 -122 75 -220 181 -304 58 -45 194
-117 264 -138 39 -13 40 -14 40 -58 0 -25 -4 -50 -9 -55 -14 -16 -62 -163 -75
-234 -13 -67 -13 -246 -2 -311 12 -65 48 -173 76 -232 23 -47 30 -77 34 -156
13 -207 19 -265 40 -352 47 -200 163 -384 338 -534 105 -90 307 -197 438 -232
59 -15 141 -33 175 -38 22 -3 51 -8 65 -10 14 -3 45 -7 70 -10 25 -3 61 -8 80
-11 81 -11 128 -16 175 -20 28 -3 77 -7 110 -11 130 -13 448 -7 560 11 16 2
48 7 70 11 55 8 76 11 105 18 14 4 37 8 51 11 51 9 204 56 213 66 6 5 16 9 23
9 20 0 161 68 243 118 151 92 258 188 355 317 119 160 177 314 190 510 2 33 6
71 9 85 2 14 7 47 11 73 3 27 16 65 28 85 24 38 66 131 72 161 3 9 11 42 20
73 8 31 16 75 18 98 1 22 6 40 12 40 5 0 4 5 -2 11 -6 6 -8 22 -4 38 7 27 7
31 -3 121 -11 95 -28 162 -64 245 -18 44 -36 94 -38 110 -3 17 -9 52 -14 78
-6 27 -8 53 -5 57 3 5 30 20 60 34 124 56 231 148 280 239 28 49 63 190 60
235 -1 12 1 22 4 22 3 0 5 33 4 72 -8 235 -9 294 -5 302 3 5 6 23 7 40 1 17
12 60 24 95 19 56 38 87 99 171 15 20 16 20 -120 21 -336 4 -654 -111 -876
-315 l-43 -39 -22 20 c-12 11 -35 32 -52 46 -99 89 -276 194 -390 232 -52 17
-164 39 -255 51 -30 3 -68 8 -85 11 -33 4 -524 11 -528 7z"/>
</g>
</svg>
